# xmcd CD database file
#
# Track frame offsets:
#	150
#	18861
#	38084
#	56957
#	76395
#	91607
#	110551
#	126729
#	147492
#	166537
#	186606
#	201270
#	225970
#	245892
#	262405
#	281468
#	295060
#	316396
#	332806
#
# Disc length: 4631 seconds
#
# Revision: 1
# Processed by: cddbd v1.5.2PL0 Copyright (c) Steve Scherf et al.
# Submitted via: CDex 1.51
#
DISCID=20121513
DTITLE=Various Artist - ZM-UKPP-Disc-4
DYEAR=1900
DGENRE=Blues
TTITLE0=Culture Club - Karma Chameleon
TTITLE1=Chris De Burgh - Lady In Red
TTITLE2=Labelle - Lady Marmalade
TTITLE3=Robbie Williams - Let Me Entertain You
TTITLE4=Madonna - Like A Virgin
TTITLE5=Bon Jovi - Livin' On A Prayer
TTITLE6=Smokie - Living Next Door To Alice
TTITLE7=R.E.M - Losing My Religion
TTITLE8=Wet Wet Wet - Love Is All Around
TTITLE9=B 52's The - Love Shack
TTITLE10=Bobby Darin - Mack The Knife
TTITLE11=Rod Stewart - Maggie May
TTITLE12=Steve Harley and Cockney Rebel - Make Me Smile (come up and see me)
TTITLE13=Abba - Mamma Mia
TTITLE14=Commitment The - Mustang Sally
TTITLE15=Temptations The - My Girl
TTITLE16=Frank Sinatra - My Way
TTITLE17=Frank Sinatra - New York New York
TTITLE18=Roy Orbison - Oh Pretty Woman
EXTD=
EXTT0=
EXTT1=
EXTT2=
EXTT3=
EXTT4=
EXTT5=
EXTT6=
EXTT7=
EXTT8=
EXTT9=
EXTT10=
EXTT11=
EXTT12=
EXTT13=
EXTT14=
EXTT15=
EXTT16=
EXTT17=
EXTT18=
PLAYORDER=
